<svg width="20" height="19" viewBox="0 0 20 19" fill="none" xmlns="http://www.w3.org/2000/svg">
<path d="M16.3834 3.10942C14.1834 1.70668 11.4668 2.36129 10.0001 3.96664C8.53343 2.36129 5.81676 1.69889 3.61676 3.10942C2.4501 3.85754 1.71676 5.12 1.66676 6.4526C1.5501 9.47627 4.41676 11.8999 8.79176 15.6171L8.8751 15.6873C9.50843 16.225 10.4834 16.225 11.1168 15.6795L11.2084 15.6015C15.5834 11.8921 18.4418 9.46848 18.3334 6.44481C18.2834 5.12 17.5501 3.85754 16.3834 3.10942ZM10.0834 14.456L10.0001 14.5339L9.91676 14.456C5.9501 11.0972 3.33343 8.87621 3.33343 6.62404C3.33343 5.06545 4.58343 3.89651 6.2501 3.89651C7.53343 3.89651 8.78343 4.66801 9.2251 5.73565H10.7834C11.2168 4.66801 12.4668 3.89651 13.7501 3.89651C15.4168 3.89651 16.6668 5.06545 16.6668 6.62404C16.6668 8.87621 14.0501 11.0972 10.0834 14.456Z" fill="black"/>
</svg>
